<mxfile host="app.diagrams.net" modified="2020-12-19T01:35:52.137Z" agent="5.0 (Windows)" etag="MHMbyYd4hcNywmRD39lM" version="14.1.1" type="github">
  <diagram id="2NAnR-_0UsMpXHbAzSp6" name="第 1 页">
    <mxGraphModel dx="1182" dy="761" grid="1" gridSize="10" guides="1" tooltips="1" connect="1" arrows="1" fold="1" page="1" pageScale="1" pageWidth="827" pageHeight="1169" math="0" shadow="0">
      <root>
        <mxCell id="0" />
        <mxCell id="1" parent="0" />
        <mxCell id="CnVrgRpf581p2RsxO5q2-1" value="" style="whiteSpace=wrap;html=1;aspect=fixed;" vertex="1" parent="1">
          <mxGeometry x="310" y="170" width="80" height="80" as="geometry" />
        </mxCell>
      </root>
    </mxGraphModel>
  </diagram>
</mxfile>
